<svg id="Layer_1" data-name="Layer 1" xmlns="http://www.w3.org/2000/svg" viewBox="0 0 270.76 338.85"><defs><style>.cls-1{fill:#1a3864;}</style></defs><path class="cls-1" d="M274.65,33.48c.48-21.32,1.44-22.3.7-24.64C270.5-6.67,217.44.17,157,.39,90.9.62,75.46-7.29,47.89,7.53,39.28,12.15,6.2,29.74,4.93,56,3.06,94.58,73.28,106.48,77.47,149.2,82,194.86,2.16,213,4.93,268c1.34,26.71,21.71,54.79,45.77,64.79,4.75,2,10.14,3.45,36.62,4.23,33.53,1,56.12-.47,77.47-1.41,68.05-3,75.22,1.34,86.62-8.45,12.81-11,15.52-26.74,20.42-57.75,3.46-21.9,3.89-37.66,3.52-85.92-.2-26-1-111.95-.89-134.71C274.52,39.15,274.65,33.48,274.65,33.48Z" transform="translate(-4.86 1.51)"/></svg>